<svg xmlns="http://www.w3.org/2000/svg" version="1.1" xmlns:xlink="http://www.w3.org/1999/xlink" xmlns:svgjs="http://svgjs.com/svgjs" width="100%" height="100%" viewBox="0 0 1000 600"><rect width="1000" height="600" x="0" y="0" fill="#fff748"/><g><circle r="166.66666666666666" cx="380.8654429117838" cy="403.08766228329637" fill="#3c1a5b" transform="matrix(0.5835700524842616,0,0,0.5835700524842616,0,64.770096078118)"/><path d="M254.7413051257732 478.087676100688L254.7413051257732 328.08767109133606L316.40067845432895 328.08767109133606Q335.08352826249734 328.08767109133606 345.7381247185933 338.62288831543106Q356.3628763666892 349.158105539526 356.3628763666892 366.7665422596847L356.3628763666892 366.7665422596847Q356.3628763666892 375.15293330776024 354.0051365346678 380.9726708678127Q351.6473967026467 386.76256361986486 347.9764853186135 390.5230094278988Q344.3354187425807 394.2834552359327 340.03776639054206 396.10398852394906Q335.7401140385033 397.9245218119655 332.0990474624705 398.5811075879714L332.0990474624705 398.5811075879714L332.0990474624705 399.864434331983Q336.15794135050703 400.07334798798485 341.2315587105528 402.01326050800236Q346.27533126259823 403.9531730280198 350.78189727063886 408.1314461480575Q355.2884632786795 412.3395640760954 358.42216811870765 418.87557702815434Q361.52602815073567 425.4414347882135 361.52602815073567 434.69332526829686L361.52602815073567 434.69332526829686Q361.52602815073567 443.91537094038 358.6310817747095 451.8839346764518Q355.7361353986835 459.82265360452334 350.572983614637 465.61254635657554Q345.4098318305904 471.432283916628 338.3067675265264 474.74505760465786Q331.23354803046266 478.087676100688 322.8471569823871 478.087676100688L322.8471569823871 478.087676100688L254.7413051257732 478.087676100688ZM272.76756915793567 408.45973903606045L272.76756915793567 462.1803934365446L317.2661778863368 462.1803934365446Q328.8758081984414 462.1803934365446 335.5312003825014 456.27112145249134Q342.18659256656133 450.3618494684381 342.18659256656133 438.9909776203356L342.18659256656133 438.9909776203356L342.18659256656133 431.6789996602697Q342.18659256656133 420.27828300416695 335.5312003825014 414.3690110201137Q328.8758081984414 408.45973903606045 317.2661778863368 408.45973903606045L317.2661778863368 408.45973903606045L272.76756915793567 408.45973903606045ZM272.76756915793567 343.9949537554794L272.76756915793567 393.0001284919211L314.25185227830957 393.0001284919211Q324.9959831584064 393.0001284919211 331.0246343744608 387.6280630518727Q337.02344078251485 382.2559976118243 337.02344078251485 372.1386076997331L337.02344078251485 372.1386076997331L337.02344078251485 364.85647454766746Q337.02344078251485 354.73908463557626 331.0246343744608 349.36701919552786Q324.9959831584064 343.9949537554794 314.25185227830957 343.9949537554794L314.25185227830957 343.9949537554794L272.76756915793567 343.9949537554794ZM488.96335831188424 478.087676100688L488.96335831188424 410.19073790007604L413.09785637520054 410.19073790007604L413.09785637520054 478.087676100688L395.04174753503776 478.087676100688L395.04174753503776 328.08767109133606L413.09785637520054 328.08767109133606L413.09785637520054 394.2834552359327L488.96335831188424 394.2834552359327L488.96335831188424 328.08767109133606L506.98962234404667 328.08767109133606L506.98962234404667 478.087676100688L488.96335831188424 478.087676100688Z " fill="#fff748" transform="matrix(0.5835700524842616,0,0,0.5835700524842616,0,64.770096078118)"/><path d="M647.5998507270583 475.7049628940565L630.8654582221847 475.7049628940565L630.8654582221847 336.45486897105116L713.8447720501593 336.45486897105116L713.8447720501593 351.2221391781665L647.5998507270583 351.2221391781665L647.5998507270583 397.90666131510727L708.0542289483075 397.90666131510727L708.0542289483075 412.6739315222226L647.5998507270583 412.6739315222226L647.5998507270583 475.7049628940565ZM816.5784266992847 475.7049628940565L807.6016995940214 475.7049628940565Q798.624972488758 475.7049628940565 794.7184338410971 470.9118339150116Q790.8396011412918 466.11870493596666 789.8421870184849 458.94286444132706L789.8421870184849 458.94286444132706L788.8447728956778 458.94286444132706Q785.4646472572762 468.52912239941696 777.6792759098101 473.32225137846194Q769.893904562344 478.08767440965113 759.1162908464568 478.08767440965113L759.1162908464568 478.08767440965113Q742.7697816115636 478.08767440965113 733.6822307148773 469.7204781572143Q724.6223857660466 461.3532819047774 724.6223857660466 446.97389496764254L724.6223857660466 446.97389496764254Q724.6223857660466 432.4282723433732 735.2891756905108 424.6429009959071Q745.9559656149751 416.8575296484411 768.5086071695565 416.8575296484411L768.5086071695565 416.8575296484411L788.8447728956778 416.8575296484411L788.8447728956778 406.68944678538037Q788.8447728956778 395.7178914345029 782.8602881588356 389.9273483326509Q776.8758034219933 384.1368052307989 764.5189506783282 384.1368052307989L764.5189506783282 384.1368052307989Q755.1266343552287 384.1368052307989 748.8373841919731 388.3204033570173Q742.5758399765733 392.5317074310915 738.3645359024991 399.51360629074077L738.3645359024991 399.51360629074077L728.805983892265 390.5368791854774Q732.9895820184835 382.1419769851848 742.1602507587371 376.2683160397656Q751.3309194989907 370.3669491464906 765.2947172182893 370.3669491464906L765.2947172182893 370.3669491464906Q784.0516439166329 370.3669491464906 794.4413743625396 379.56532383459995Q804.8033988605905 388.7359925748536 804.8033988605905 405.08250180974676L804.8033988605905 405.08250180974676L804.8033988605905 461.74116517475795L816.5784266992847 461.74116517475795L816.5784266992847 475.7049628940565ZM761.7206499448974 464.53946590818884L761.7206499448974 464.53946590818884Q767.7051346817397 464.53946590818884 772.6922052957749 463.1264625675455Q777.6792759098101 461.74116517475795 781.253343183202 459.13680607631727Q784.8551164044496 456.5601529257325 786.8499446500638 453.15232133947507Q788.8447728956778 449.77219570107343 788.8447728956778 445.78253920984525L788.8447728956778 445.78253920984525L788.8447728956778 428.82649912212554L767.7051346817397 428.82649912212554Q753.9352785974313 428.82649912212554 747.6460284341758 432.8161556133537Q741.3567782709202 436.8058121045819 741.3567782709202 444.3972418170577L741.3567782709202 444.3972418170577L741.3567782709202 448.58083994327615Q741.3567782709202 456.14456370789617 746.8425559463591 460.35586778197035Q752.3283336217978 464.53946590818884 761.7206499448974 464.53946590818884ZM878.9999272182922 475.7049628940565L860.4646481027946 475.7049628940565L824.3637980467508 372.77736660994094L840.3224240116634 372.77736660994094L858.2758782221903 423.83942850809035L869.441375208058 458.94286444132706L870.438789330865 458.94286444132706L881.6042863167328 423.83942850809035L899.94562379724 372.77736660994094L915.322424857182 372.77736660994094L878.9999272182922 475.7049628940565ZM943.8318452007499 348.6454860275816L943.8318452007499 348.6454860275816Q938.6508329517245 348.6454860275816 936.3512392796971 346.15195072056406Q934.0793515555255 343.65841541354644 934.0793515555255 339.66875892231826L934.0793515555255 339.66875892231826L934.0793515555255 337.0643998238777Q934.0793515555255 333.0747433326495 936.3512392796971 330.5812080256319Q938.6508329517245 328.0876727186143 943.8318452007499 328.0876727186143L943.8318452007499 328.0876727186143Q949.0405633976311 328.0876727186143 951.3124511218027 330.5812080256319Q953.61204479383 333.0747433326495 953.61204479383 337.0643998238777L953.61204479383 337.0643998238777L953.61204479383 339.66875892231826Q953.61204479383 343.65841541354644 951.3124511218027 346.15195072056406Q949.0405633976311 348.6454860275816 943.8318452007499 348.6454860275816ZM935.8525322182935 475.7049628940565L935.8525322182935 372.77736660994094L951.8111581832062 372.77736660994094L951.8111581832062 475.7049628940565L935.8525322182935 475.7049628940565ZM1024.0405642431497 478.08767440965113L1024.0405642431497 478.08767440965113Q1013.2629505272623 478.08767440965113 1004.6741066919795 474.31966550126896Q996.1129688045525 470.52395064503105 990.2116019112774 463.5420517853818Q984.3379409658581 456.5601529257325 981.234874806014 446.58601169766206Q978.1595145940256 436.6118704695916 978.1595145940256 424.2273117780708L978.1595145940256 424.2273117780708Q978.1595145940256 411.8704590344058 981.234874806014 401.8963178063354Q984.3379409658581 391.922176578265 990.2116019112774 384.9402777186157Q996.1129688045525 377.9583788589664 1004.6741066919795 374.1626640027285Q1013.2629505272623 370.3669491464906 1024.0405642431497 370.3669491464906L1024.0405642431497 370.3669491464906Q1039.3896593552358 370.3669491464906 1048.6711518869124 377.0717885275823Q1057.952644418589 383.7489219608184 1062.524125814788 394.5265356767056L1062.524125814788 394.5265356767056L1049.1698589483158 401.2867869535089Q1046.3715582148848 393.30747397105256 1039.9991902080624 388.92993420984385Q1033.5991162533837 384.55239444863514 1024.0405642431497 384.55239444863514L1024.0405642431497 384.55239444863514Q1016.8647237485101 384.55239444863514 1011.4620639166385 386.82428217280676Q1006.0871100326227 389.1238758448341 1002.4853368113751 393.2243561274853Q998.9112695379832 397.29713046228073 997.1103829273594 403.00455572056546Q995.3094963167356 408.68427503099446 995.3094963167356 415.47223225565347L995.3094963167356 415.47223225565347L995.3094963167356 433.010097248344Q995.3094963167356 446.58601169766206 1002.5961606027982 455.25797337651215Q1009.8828248888607 463.9299350553623 1024.0405642431497 463.9299350553623L1024.0405642431497 463.9299350553623Q1043.3793158464637 463.9299350553623 1051.9681596817468 445.9764808448355L1051.9681596817468 445.9764808448355L1063.5215399375952 453.7618521923016Q1058.5344693235597 464.9273491781693 1048.6711518869124 471.5213647678381Q1038.807834450265 478.08767440965113 1024.0405642431497 478.08767440965113ZM1123.7819765238537 478.08767440965113L1123.7819765238537 478.08767440965113Q1113.3922460779472 478.08767440965113 1104.83110819052 474.31966550126896Q1096.2422643552372 470.52395064503105 1090.1746617748277 463.43122799395877Q1084.0793532465623 456.36621129074217 1080.6992276081605 446.47518790623906Q1077.2913960219034 436.6118704695916 1077.2913960219034 424.2273117780708L1077.2913960219034 424.2273117780708Q1077.2913960219034 412.0644006693961 1080.6992276081605 402.09025944132566Q1084.0793532465623 392.1161182132552 1090.1746617748277 385.0511015100387Q1096.2422643552372 377.9583788589664 1104.83110819052 374.1626640027285Q1113.3922460779472 370.3669491464906 1123.7819765238537 370.3669491464906L1123.7819765238537 370.3669491464906Q1134.1440010219048 370.3669491464906 1142.6220210657648 374.1626640027285Q1151.1000411096243 377.9583788589664 1157.278467481457 385.0511015100387Q1163.4845998011451 392.1161182132552 1166.8647254395469 402.09025944132566Q1170.2448510779486 412.0644006693961 1170.2448510779486 424.2273117780708L1170.2448510779486 424.2273117780708Q1170.2448510779486 436.6118704695916 1166.8647254395469 446.47518790623906Q1163.4845998011451 456.36621129074217 1157.278467481457 463.43122799395877Q1151.1000411096243 470.52395064503105 1142.6220210657648 474.31966550126896Q1134.1440010219048 478.08767440965113 1123.7819765238537 478.08767440965113ZM1123.7819765238537 463.9299350553623L1123.7819765238537 463.9299350553623Q1136.7483601203453 463.9299350553623 1144.921614737792 455.95062207290596Q1153.0948693552386 447.9713090904496 1153.0948693552386 431.62479985555643L1153.0948693552386 431.62479985555643L1153.0948693552386 416.8575296484411Q1153.0948693552386 400.51102041354784 1144.921614737792 392.5317074310915Q1136.7483601203453 384.55239444863514 1123.7819765238537 384.55239444863514L1123.7819765238537 384.55239444863514Q1110.815592927362 384.55239444863514 1102.6423383099159 392.5317074310915Q1094.4413777446134 400.51102041354784 1094.4413777446134 416.8575296484411L1094.4413777446134 416.8575296484411L1094.4413777446134 431.62479985555643Q1094.4413777446134 447.9713090904496 1102.6423383099159 455.95062207290596Q1110.815592927362 463.9299350553623 1123.7819765238537 463.9299350553623ZM1212.5518334536805 475.7049628940565L1196.5932074887678 475.7049628940565L1196.5932074887678 372.77736660994094L1212.5518334536805 372.77736660994094L1212.5518334536805 389.5394650626704L1213.3553059414976 389.5394650626704Q1217.1233148498795 380.75667959239723 1224.0220958659615 375.5756673433718Q1230.8931709341878 370.3669491464906 1242.474257137892 370.3669491464906L1242.474257137892 370.3669491464906Q1258.4328831028047 370.3669491464906 1267.7143756344813 380.64585580097423Q1276.968162218302 390.92476245545794 1276.968162218302 409.68168915380147L1276.968162218302 409.68168915380147L1276.968162218302 475.7049628940565L1261.0095362533893 475.7049628940565L1261.0095362533893 412.47998988723236Q1261.0095362533893 384.7463360836254 1237.681128158847 384.7463360836254L1237.681128158847 384.7463360836254Q1232.8879991798021 384.7463360836254 1228.3996356271705 385.93769184142275Q1223.9112720745384 387.12904759922003 1220.3372048011465 389.5394650626704Q1216.735431579899 391.922176578265 1214.6297795428618 395.60706764307986Q1212.5518334536805 399.29195870789476 1212.5518334536805 404.27902932193L1212.5518334536805 404.27902932193L1212.5518334536805 475.7049628940565ZM1320.078617081851 478.08767440965113L1320.078617081851 478.08767440965113Q1313.6785431271724 478.08767440965113 1310.7971245501744 474.90149040623976Q1307.8880000253203 471.71530640282833 1307.8880000253203 466.5342941538029L1307.8880000253203 466.5342941538029L1307.8880000253203 463.9299350553623Q1307.8880000253203 458.74892280633685 1310.7971245501744 455.5627388029254Q1313.6785431271724 452.37655479951405 1320.078617081851 452.37655479951405L1320.078617081851 452.37655479951405Q1326.4509850886739 452.37655479951405 1329.3324036656718 455.5627388029254Q1332.2415281905255 458.74892280633685 1332.2415281905255 463.9299350553623L1332.2415281905255 463.9299350553623L1332.2415281905255 466.5342941538029Q1332.2415281905255 471.71530640282833 1329.3324036656718 474.90149040623976Q1326.4509850886739 478.08767440965113 1320.078617081851 478.08767440965113ZM1372.1380931028075 348.6454860275816L1372.1380931028075 348.6454860275816Q1366.957080853782 348.6454860275816 1364.6574871817547 346.15195072056406Q1362.357893509727 343.65841541354644 1362.357893509727 339.66875892231826L1362.357893509727 339.66875892231826L1362.357893509727 337.0643998238777Q1362.357893509727 333.0747433326495 1364.6574871817547 330.5812080256319Q1366.957080853782 328.0876727186143 1372.1380931028075 328.0876727186143L1372.1380931028075 328.0876727186143Q1377.319105351833 328.0876727186143 1379.6186990238602 330.5812080256319Q1381.9182926958874 333.0747433326495 1381.9182926958874 337.0643998238777L1381.9182926958874 337.0643998238777L1381.9182926958874 339.66875892231826Q1381.9182926958874 343.65841541354644 1379.6186990238602 346.15195072056406Q1377.319105351833 348.6454860275816 1372.1380931028075 348.6454860275816ZM1364.158780120351 475.7049628940565L1364.158780120351 372.77736660994094L1380.1174060852636 372.77736660994094L1380.1174060852636 475.7049628940565L1364.158780120351 475.7049628940565ZM1452.9286370501777 478.08767440965113L1452.9286370501777 478.08767440965113Q1442.5389066042712 478.08767440965113 1433.977768716844 474.31966550126896Q1425.3889248815613 470.52395064503105 1419.3213223011517 463.43122799395877Q1413.2260137728863 456.36621129074217 1409.8458881344845 446.47518790623906Q1406.4380565482275 436.6118704695916 1406.4380565482275 424.2273117780708L1406.4380565482275 424.2273117780708Q1406.4380565482275 412.0644006693961 1409.8458881344845 402.09025944132566Q1413.2260137728863 392.1161182132552 1419.3213223011517 385.0511015100387Q1425.3889248815613 377.9583788589664 1433.977768716844 374.1626640027285Q1442.5389066042712 370.3669491464906 1452.9286370501777 370.3669491464906L1452.9286370501777 370.3669491464906Q1463.2906615482289 370.3669491464906 1471.7686815920888 374.1626640027285Q1480.2467016359483 377.9583788589664 1486.425128007781 385.0511015100387Q1492.6312603274691 392.1161182132552 1496.0113859658709 402.09025944132566Q1499.3915116042726 412.0644006693961 1499.3915116042726 424.2273117780708L1499.3915116042726 424.2273117780708Q1499.3915116042726 436.6118704695916 1496.0113859658709 446.47518790623906Q1492.6312603274691 456.36621129074217 1486.425128007781 463.43122799395877Q1480.2467016359483 470.52395064503105 1471.7686815920888 474.31966550126896Q1463.2906615482289 478.08767440965113 1452.9286370501777 478.08767440965113ZM1452.9286370501777 463.9299350553623L1452.9286370501777 463.9299350553623Q1465.8950206466693 463.9299350553623 1474.068275264116 455.95062207290596Q1482.2415298815627 447.9713090904496 1482.2415298815627 431.62479985555643L1482.2415298815627 431.62479985555643L1482.2415298815627 416.8575296484411Q1482.2415298815627 400.51102041354784 1474.068275264116 392.5317074310915Q1465.8950206466693 384.55239444863514 1452.9286370501777 384.55239444863514L1452.9286370501777 384.55239444863514Q1439.9622534536861 384.55239444863514 1431.7889988362394 392.5317074310915Q1423.5880382709374 400.51102041354784 1423.5880382709374 416.8575296484411L1423.5880382709374 416.8575296484411L1423.5880382709374 431.62479985555643Q1423.5880382709374 447.9713090904496 1431.7889988362394 455.95062207290596Q1439.9622534536861 463.9299350553623 1452.9286370501777 463.9299350553623Z " fill="#3c1a5b" transform="matrix(0.5835700524842616,0,0,0.5835700524842616,0,64.770096078118)"/></g></svg>